<?xml version="1.0" encoding="utf-8"?>
<!-- Generator: Adobe Illustrator 16.0.0, SVG Export Plug-In . SVG Version: 6.00 Build 0)  -->
<!DOCTYPE svg PUBLIC "-//W3C//DTD SVG 1.1//EN" "http://www.w3.org/Graphics/SVG/1.1/DTD/svg11.dtd">
<svg version="1.1" id="Layer_1" xmlns="http://www.w3.org/2000/svg" xmlns:xlink="http://www.w3.org/1999/xlink" x="0px" y="0px"
	 width="172.28px" height="68.313px" viewBox="0 0 172.28 68.313" enable-background="new 0 0 172.28 68.313" xml:space="preserve">
<g>
	<path fill="#08B248" d="M8.631,35.357H0V24.895h8.631v-7.498c0-2.324,0.203-4.519,0.61-6.583c0.406-2.062,1.19-3.88,2.354-5.45
		c1.162-1.569,2.833-2.803,5.013-3.705c2.18-0.9,5.042-1.352,8.588-1.352c1.336,0,2.645,0.059,3.923,0.174
		c1.278,0.117,2.529,0.32,3.749,0.61l-0.61,11.073c-0.755-0.29-1.453-0.508-2.092-0.654c-0.641-0.145-1.367-0.218-2.18-0.218
		c-2.092,0-3.662,0.451-4.708,1.351c-1.046,0.902-1.569,2.747-1.569,5.537v6.713h9.678v10.462h-9.678v31.911H8.631V35.357z
		 M36.531,24.895h13.078v42.373H36.531V24.895z"/>
	<path fill="#08B248" d="M70.446,44.599L56.322,24.895h15.432l7.499,11.509l7.236-11.509h14.56L87.273,44.599l16.304,22.669H88.145
		l-9.242-14.125l-9.939,14.125H53.706L70.446,44.599z"/>
	<path fill="#08B248" d="M107.676,24.895h13.077v42.373h-13.077V24.895z"/>
	<path fill="#08B248" d="M170.274,59.943c-2.094,2.674-4.738,4.739-7.936,6.19c-3.195,1.453-6.51,2.18-9.938,2.18
		c-3.255,0-6.32-0.523-9.198-1.569c-2.877-1.046-5.377-2.542-7.498-4.49c-2.123-1.947-3.792-4.286-5.013-7.019
		c-1.221-2.731-1.831-5.783-1.831-9.154c0-3.37,0.61-6.422,1.831-9.155c1.221-2.731,2.89-5.071,5.013-7.019
		c2.121-1.947,4.621-3.444,7.498-4.49c2.877-1.046,5.943-1.569,9.198-1.569c3.021,0,5.768,0.523,8.238,1.569
		c2.471,1.046,4.562,2.543,6.277,4.49c1.715,1.948,3.037,4.287,3.967,7.019c0.93,2.733,1.396,5.785,1.396,9.155v4.098h-30.34
		c0.522,2.5,1.655,4.49,3.399,5.972c1.744,1.482,3.893,2.223,6.451,2.223c2.15,0,3.967-0.479,5.449-1.438
		c1.482-0.958,2.775-2.193,3.879-3.705L170.274,59.943z M159.2,41.286c0.059-2.208-0.668-4.098-2.178-5.667
		c-1.514-1.569-3.459-2.354-5.842-2.354c-1.452,0-2.733,0.233-3.836,0.698c-1.105,0.466-2.048,1.062-2.833,1.788
		c-0.785,0.727-1.396,1.569-1.831,2.528s-0.685,1.961-0.74,3.008H159.2z"/>
</g>
<g>
</g>
<path fill="#08B248" d="M112.707,20.243l-0.869,1.517c-0.317,0.562-0.996,0.796-1.602,0.573c-1.251-0.467-2.396-1.134-3.404-1.972
	c-0.488-0.403-0.615-1.114-0.296-1.665l0.869-1.517c-0.732-0.848-1.304-1.834-1.687-2.906h-1.75c-0.636,0-1.188-0.456-1.293-1.093
	c-0.213-1.272-0.223-2.607,0-3.934c0.105-0.636,0.657-1.102,1.293-1.102h1.75c0.382-1.072,0.955-2.058,1.687-2.906l-0.869-1.517
	c-0.318-0.551-0.202-1.262,0.296-1.665c1.008-0.837,2.164-1.506,3.404-1.973c0.605-0.223,1.284,0.011,1.602,0.573l0.869,1.517
	c1.114-0.203,2.25-0.203,3.363,0l0.869-1.517c0.318-0.562,0.996-0.796,1.601-0.573c1.253,0.466,2.397,1.135,3.404,1.973
	c0.488,0.403,0.615,1.114,0.296,1.665l-0.869,1.517c0.732,0.848,1.304,1.834,1.686,2.906h1.75c0.636,0,1.187,0.456,1.293,1.092
	c0.213,1.273,0.223,2.608,0,3.935c-0.106,0.636-0.657,1.102-1.293,1.102h-1.75c-0.382,1.071-0.954,2.058-1.686,2.906l0.869,1.517
	c0.319,0.551,0.202,1.262-0.296,1.665c-1.007,0.838-2.163,1.505-3.404,1.972c-0.605,0.224-1.283-0.011-1.601-0.573l-0.869-1.517
	C114.966,20.444,113.82,20.444,112.707,20.243z M111.594,14.007c4.082,3.14,8.737-1.515,5.599-5.598
	C113.109,5.259,108.454,9.924,111.594,14.007z"/>
<g>
</g>
<g>
</g>
<g>
</g>
<g>
</g>
<g>
</g>
<g>
</g>
<g>
</g>
<g>
</g>
<g>
</g>
<g>
</g>
<g>
</g>
<g>
</g>
<g>
</g>
<g>
</g>
<g>
</g>
</svg>
